<svg width="20" height="20" viewBox="0 0 20 20" fill="none" xmlns="http://www.w3.org/2000/svg">
<path d="M17.746 6.62059C17.5 5.69217 15.841 0.71582 9.99999 0.71582C4.15899 0.71582 2.49999 5.69217 2.25399 6.62059C1.90425 6.68057 1.58641 6.86641 1.35685 7.14514C1.12729 7.42387 1.00086 7.77747 0.999992 8.14321V12.1664C0.999992 12.5768 1.15803 12.9703 1.43933 13.2605C1.72064 13.5507 2.10217 13.7137 2.49999 13.7137H4.46199C5.00279 14.7424 5.80279 15.6014 6.77754 16.1999C7.75229 16.7985 8.86562 17.1144 9.99999 17.1144C11.1344 17.1144 12.2477 16.7985 13.2224 16.1999C14.1972 15.6014 14.9972 14.7424 15.538 13.7137H16.369C15.808 15.128 14.155 18.0464 9.99999 18.0464C9.84086 18.0464 9.68825 18.1116 9.57573 18.2277C9.46321 18.3438 9.39999 18.5012 9.39999 18.6653C9.39999 18.8295 9.46321 18.9869 9.57573 19.103C9.68825 19.2191 9.84086 19.2843 9.99999 19.2843C15.343 19.2843 17.179 15.1188 17.65 13.7137C18.0213 13.6753 18.3653 13.4954 18.615 13.2093C18.8646 12.9231 19.0019 12.5513 19 12.1664V8.14321C18.9991 7.77747 18.8727 7.42387 18.6431 7.14514C18.4136 6.86641 18.0957 6.68057 17.746 6.62059ZM3.96399 12.4759H2.49999C2.42043 12.4759 2.34412 12.4432 2.28786 12.3852C2.2316 12.3272 2.19999 12.2485 2.19999 12.1664V8.14321C2.19999 8.06113 2.2316 7.98241 2.28786 7.92438C2.34412 7.86634 2.42043 7.83373 2.49999 7.83373H3.96399C3.79011 8.43641 3.7012 9.06177 3.69999 9.69058V10.619C3.7012 11.2478 3.79011 11.8732 3.96399 12.4759ZM15.1 10.619C15.1 12.0143 14.5627 13.3525 13.6062 14.3391C12.6498 15.3258 11.3526 15.8801 9.99999 15.8801C8.64739 15.8801 7.35018 15.3258 6.39375 14.3391C5.43731 13.3525 4.89999 12.0143 4.89999 10.619V9.69058C4.89999 8.29526 5.43731 6.95709 6.39375 5.97044C7.35018 4.9838 8.64739 4.42951 9.99999 4.42951C11.3526 4.42951 12.6498 4.9838 13.6062 5.97044C14.5627 6.95709 15.1 8.29526 15.1 9.69058V10.619ZM15.55 6.6175C15.0131 5.58166 14.214 4.71529 13.2379 4.11054C12.2617 3.50578 11.1449 3.18525 10.0063 3.18303C8.86761 3.18081 7.74965 3.49698 6.77128 4.09792C5.79291 4.69886 4.99071 5.5621 4.44999 6.59584H3.51699C3.93999 5.35794 5.49999 1.95372 9.99999 1.95372C14.5 1.95372 16.072 5.35794 16.486 6.59584H15.7C15.6493 6.59675 15.599 6.60402 15.55 6.6175ZM17.8 12.1664C17.8 12.2485 17.7684 12.3272 17.7121 12.3852C17.6559 12.4432 17.5796 12.4759 17.5 12.4759H16.036C16.2099 11.8732 16.2988 11.2478 16.3 10.619V9.69058C16.2988 9.06177 16.2099 8.43641 16.036 7.83373H17.5C17.5796 7.83373 17.6559 7.86634 17.7121 7.92438C17.7684 7.98241 17.8 8.06113 17.8 8.14321V12.1664Z" fill="#334D8F"/>
</svg>
