<svg width="102" height="102" viewBox="0 0 102 102" fill="none" xmlns="http://www.w3.org/2000/svg">
<path d="M7.32546 89.9866C7.32546 89.9866 -6.90683 52.2135 7.32546 23.4779C21.5577 -5.25781 77.7306 -7.70251 93.8402 23.4779C109.95 54.6582 93.8402 89.9866 93.8402 89.9866C53.8138 104.345 47.3519 104.993 7.32546 89.9866Z" fill="white" stroke="black"/>
<path d="M48.6257 100.781C39.5387 100.709 31.3876 98.4732 14.1392 92.4158C41.8884 85.0888 57.8308 85.6266 86.6039 92.5009C71.1478 97.4447 62.2056 101.058 48.6257 100.781Z" fill="#D9D9D9" stroke="black"/>
<path d="M19.0159 82.5199C4.24955 96.4826 9.54168 43.184 19.0159 27.9628C33.0057 5.48689 68.9117 5.4869 82.9015 27.9628C92.3757 43.184 97.871 92.4081 82.9015 82.5199C67.9319 72.6316 33.7823 68.5571 19.0159 82.5199Z" fill="#3C50FF"/>
<path d="M65.6018 53.1535C63.061 52.0581 37.5871 52.0138 34.9356 53.1535C32.284 54.2932 35.2145 67.4925 50.329 67.4925C65.4436 67.4925 68.1425 54.2489 65.6018 53.1535Z" fill="#6DE1F3"/>
<path d="M40.3509 33.834C35.8469 30.7278 28.1855 38.2886 25.6052 41.3647C23.0249 44.4407 21.061 44.1343 25.6052 38.9841C30.1494 33.834 34.9437 27.8966 40.3509 31.545C45.7581 35.1933 44.8549 36.9401 40.3509 33.834Z" fill="#6DE1F3"/>
<path d="M62.7021 33.834C67.2061 30.7278 74.8675 38.2886 77.4478 41.3647C80.0281 44.4407 81.992 44.1343 77.4478 38.9841C72.9036 33.834 68.1093 27.8966 62.7021 31.545C57.2949 35.1933 58.1981 36.9401 62.7021 33.834Z" fill="#6DE1F3"/>
</svg>
