<svg width="2734" height="2727" viewBox="0 0 2734 2727" fill="none" xmlns="http://www.w3.org/2000/svg">
<path d="M2008.6 1940.97C2054.23 1855.31 2088.34 1756.87 2046.9 1755.07C2005.47 1753.28 1290.96 2418.26 1329.57 2442.14C1368.18 2466.03 1962.96 2026.63 2008.6 1940.97Z" fill="white" stroke="black"/>
<path d="M1423.16 1086.74C1367.33 1166.13 1294.89 1241.01 1274.59 1204.84C1254.28 1168.68 1525.06 230.926 1563.81 254.592C1602.55 278.258 1478.99 1007.35 1423.16 1086.74Z" fill="white" stroke="black"/>
<path d="M1658.47 350.766C1763.46 420.397 1752.77 576.427 1659.01 616.098" stroke="black" stroke-width="20"/>
<path d="M1704.4 297.673C1855.14 397.654 1839.8 621.693 1705.17 678.655" stroke="black" stroke-width="20"/>
<path d="M1364.96 580.082C1279.11 487.889 1325.88 338.652 1426.31 321.94" stroke="black" stroke-width="20"/>
<path d="M1307.92 621.002C1184.65 488.625 1251.81 274.34 1396.01 250.343" stroke="black" stroke-width="20"/>
<path d="M1503.9 1076.02C1503.9 1076.02 1523.54 822.58 1690.12 706.119C1856.7 589.659 2203.47 747.191 2213.64 969.683C2223.82 1192.18 2027.42 1339.58 2027.42 1339.58C1745.01 1297.5 1704.09 1281.42 1503.9 1076.02Z" fill="white" stroke="black"/>
<path d="M1723.59 1261.87C1668.81 1233.79 1625.74 1196.52 1538.33 1110.29C1726.76 1154.07 1821.73 1205.63 1976.59 1331.52C1869.22 1311.93 1804.99 1304.78 1723.59 1261.87Z" fill="#D9D9D9" stroke="black"/>
<path d="M1595.54 1070.11C1467.09 1102.78 1648.35 822.47 1748.3 766.677C1895.89 684.293 2113.17 793.679 2134.89 961.302C2149.6 1074.82 2045.03 1365.33 1982.13 1264.73C1919.23 1164.13 1723.99 1037.44 1595.54 1070.11Z" fill="#3C50FF"/>
<path d="M1959.68 1048.7C1947.37 1034.87 1793.34 957.02 1774.11 955.281C1754.87 953.542 1735.64 1035.88 1827.11 1081.93C1918.57 1127.97 1971.98 1062.54 1959.68 1048.7Z" fill="#6DE1F3"/>
<path d="M1860.97 864.326C1842.41 833.329 1774.88 852.04 1750.65 861.287C1726.43 870.534 1715.4 862.847 1757.32 848.047C1799.24 833.247 1844.87 814.831 1867.38 851.595C1889.88 888.359 1879.53 895.322 1860.97 864.326Z" fill="#6DE1F3"/>
<path d="M1996.23 932.42C2032.18 928.866 2057.37 994.257 2064.37 1019.23C2071.37 1044.19 2084.11 1048.47 2071.04 1005.99C2057.96 963.499 2045.57 915.872 2002.64 919.69C1959.7 923.508 1960.28 935.974 1996.23 932.42Z" fill="#6DE1F3"/>
<ellipse cx="962.727" cy="2180.7" rx="204.603" ry="201.741" transform="rotate(45.7863 962.727 2180.7)" fill="#6DE1F3"/>
<path d="M793.549 1965.44C902.549 1811.57 1230.96 1129.29 1602.64 1178.25C1833.02 1208.6 1961.83 1341 1985.84 1572.12C2024.59 1945 1324.46 2259 1176.75 2359.3C1029.04 2459.6 684.549 2119.3 793.549 1965.44Z" fill="white" stroke="black"/>
<path d="M821.838 2174.46C772.175 2083.11 748.857 2030.53 805.408 1947.83C902.698 1788.07 955.48 1703.61 1042.75 1572.85C892.177 1855.62 808.774 2013.41 821.838 2174.46Z" fill="#BDBDBD" stroke="black"/>
<path d="M1943.74 1703.99C1968.07 1623.65 1937.09 1482.09 1937.09 1482.09C1943.85 1663.67 1910.02 1768.55 1761.41 1937.93C1761.41 1937.93 1910.16 1814.85 1943.74 1703.99Z" fill="#D9D9D9" stroke="black"/>
</svg>
