<svg width="26" height="17" viewBox="0 0 26 17" fill="none" xmlns="http://www.w3.org/2000/svg">
<path d="M5.4208 14.2875C5.4208 14.2875 3.01281 8.41361 5.4208 3.9451C7.82879 -0.523406 17.3328 -0.903567 20.0584 3.9451C22.784 8.79377 20.0584 14.2875 20.0584 14.2875C13.2863 16.5203 12.193 16.6211 5.4208 14.2875Z" fill="white" stroke="black" stroke-width="0.1"/>
<path d="M12.4091 15.966C10.8716 15.9548 9.49251 15.6071 6.57422 14.6652C11.2692 13.5258 13.9665 13.6094 18.8347 14.6784C16.2196 15.4472 14.7067 16.009 12.4091 15.966Z" fill="#D9D9D9" stroke="black" stroke-width="0.1"/>
<path d="M7.39868 13.1262C4.90033 15.2974 5.79571 7.00927 7.39868 4.64231C9.76563 1.14723 15.8406 1.14723 18.2076 4.64231C19.8106 7.00926 20.7403 14.6638 18.2076 13.1262C15.6749 11.5885 9.89703 10.9549 7.39868 13.1262Z" fill="#3C50FF" stroke="black" stroke-width="0.1"/>
<path d="M15.2811 8.5598C14.8513 8.38945 10.5413 8.38257 10.0927 8.5598C9.64403 8.73703 10.1398 10.7896 12.6971 10.7896C15.2544 10.7896 15.711 8.73014 15.2811 8.5598Z" fill="#6DE1F3" stroke="black" stroke-width="0.1"/>
<path d="M10.5413 5.7613C10.5413 6.2136 10.4696 6.6208 10.3554 6.91309C10.2983 7.0594 10.2315 7.17439 10.1599 7.25196C10.0883 7.32948 10.0156 7.36591 9.94505 7.36591C9.87446 7.36591 9.80182 7.32948 9.73025 7.25196C9.65862 7.17439 9.59182 7.0594 9.53468 6.91309C9.42052 6.6208 9.34883 6.2136 9.34883 5.7613C9.34883 5.309 9.42052 4.9018 9.53468 4.6095C9.59182 4.4632 9.65862 4.34821 9.73025 4.27064C9.80182 4.19312 9.87446 4.15669 9.94505 4.15669C10.0156 4.15669 10.0883 4.19312 10.1599 4.27064C10.2315 4.34821 10.2983 4.4632 10.3554 4.6095C10.4696 4.9018 10.5413 5.309 10.5413 5.7613Z" fill="#6DE1F3" stroke="black" stroke-width="0.1"/>
<path d="M16.0198 5.7613C16.0198 6.2136 15.9481 6.6208 15.8339 6.91309C15.7768 7.0594 15.71 7.17439 15.6384 7.25196C15.5668 7.32948 15.4942 7.36591 15.4236 7.36591C15.353 7.36591 15.2803 7.32948 15.2088 7.25196C15.1371 7.17439 15.0703 7.0594 15.0132 6.91309C14.899 6.6208 14.8273 6.2136 14.8273 5.7613C14.8273 5.309 14.899 4.9018 15.0132 4.6095C15.0703 4.4632 15.1371 4.34821 15.2088 4.27064C15.2803 4.19312 15.353 4.15669 15.4236 4.15669C15.4942 4.15669 15.5668 4.19312 15.6384 4.27064C15.71 4.34821 15.7768 4.4632 15.8339 4.6095C15.9481 4.9018 16.0198 5.309 16.0198 5.7613Z" fill="#6DE1F3" stroke="black" stroke-width="0.1"/>
<path d="M4.73759 11.1974C4.73759 11.1974 5.3359 5.90893 5.11466 5.33883C4.89341 4.76873 3.35134 5.25342 2.82743 8.55637C2.42927 11.0666 3.45163 11.267 4.73759 11.1974Z" fill="#3C50FF" stroke="black" stroke-width="0.1"/>
<path d="M3.8877 6.32944L4.86024 0.00708008L4.86024 5.77199C4.49002 6.46493 4.278 6.64693 3.8877 6.32944Z" fill="#3C50FF" stroke="black" stroke-width="0.1"/>
<g filter="url(#filter0_d_219_240)">
<path d="M4.86495 2.55978C4.86495 2.55978 5.07649 2.99483 4.62528 2.90083C4.28768 2.83049 4.3687 2.64349 4.42604 2.55882C4.42843 2.54372 4.43887 2.52921 4.45936 2.51611C4.45936 2.51611 4.44384 2.53253 4.42604 2.55882C4.40531 2.68973 4.9889 2.86555 4.86495 2.55978Z" fill="#D9D9D9"/>
<path d="M4.86495 2.55978C4.86495 2.55978 5.07649 2.99483 4.62528 2.90083C4.18285 2.80865 4.45936 2.51611 4.45936 2.51611C4.26122 2.64274 5.00321 2.90083 4.86495 2.55978Z" stroke="black" stroke-width="0.1"/>
</g>
<g filter="url(#filter1_d_219_240)">
<path d="M4.87523 3.98005C4.87523 3.98005 5.19135 4.63018 4.51707 4.4897C4.01257 4.38459 4.13364 4.10514 4.21933 3.97862C4.22291 3.95605 4.2385 3.93437 4.26913 3.91479C4.26913 3.91479 4.24594 3.93933 4.21933 3.97862C4.18836 4.17423 5.06046 4.43698 4.87523 3.98005Z" fill="#D9D9D9"/>
<path d="M4.87523 3.98005C4.87523 3.98005 5.19135 4.63018 4.51707 4.4897C3.85593 4.35196 4.26913 3.91479 4.26913 3.91479C3.97303 4.10402 5.08183 4.4897 4.87523 3.98005Z" stroke="black" stroke-width="0.1"/>
</g>
<path d="M4.72748 11.1918C3.55817 10.8039 2.92111 10.5202 2.85348 8.46167C2.63807 9.58647 2.74575 10.3563 3.0645 10.7549C3.51075 11.2522 4.16832 11.2097 4.72748 11.1918Z" fill="#2939CA" stroke="black" stroke-width="0.1"/>
<path d="M20.9274 11.1903C20.9274 11.1903 20.3291 5.90185 20.5504 5.33175C20.7716 4.76165 22.3137 5.24634 22.8376 8.54929C23.2358 11.0595 22.2134 11.2599 20.9274 11.1903Z" fill="#3C50FF" stroke="black" stroke-width="0.1"/>
<path d="M21.7773 6.32236L20.8048 0L20.8048 5.76491C21.175 6.45785 21.387 6.63985 21.7773 6.32236Z" fill="#3C50FF" stroke="black" stroke-width="0.1"/>
<g filter="url(#filter2_d_219_240)">
<path d="M20.7908 3.97297C20.7908 3.97297 20.4747 4.6231 21.1489 4.48262C21.6534 4.37751 21.5324 4.09806 21.4467 3.97154C21.4431 3.94897 21.4275 3.92729 21.3969 3.90771C21.3969 3.90771 21.4201 3.93225 21.4467 3.97154C21.4777 4.16715 20.6056 4.4299 20.7908 3.97297Z" fill="#D9D9D9"/>
<path d="M20.7908 3.97297C20.7908 3.97297 20.4747 4.6231 21.1489 4.48262C21.8101 4.34488 21.3969 3.90771 21.3969 3.90771C21.693 4.09694 20.5842 4.48262 20.7908 3.97297Z" stroke="black" stroke-width="0.1"/>
</g>
<path d="M20.9385 11.1847C22.1078 10.7968 22.7449 10.5131 22.8125 8.45459C23.0279 9.57939 22.9203 10.3492 22.6015 10.7478C22.1553 11.2451 21.4977 11.2026 20.9385 11.1847Z" fill="#2939CA" stroke="black" stroke-width="0.1"/>
<path d="M4.82418 10.0426C5.01661 9.6727 2.9432 9.7069 4.07353 10.813C5.20387 11.919 9.98 12.7291 9.98 12.7291C9.98 12.7291 11.0825 11.8204 9.98 12.2748C8.87753 12.7291 4.63175 10.4124 4.82418 10.0426Z" fill="#FF932F" stroke="black" stroke-width="0.1"/>
<path d="M9.97114 13.1838C9.7376 12.9463 9.80245 12.0501 9.97114 11.8545C10.1398 11.6589 12.256 11.7431 12.3945 11.8545C12.533 11.966 12.593 12.9551 12.3945 13.1838C12.196 13.4126 10.2047 13.4213 9.97114 13.1838Z" fill="#3B3B3B" stroke="black" stroke-width="0.1"/>
<path d="M7.35886 12.1621C5.37829 11.5132 4.47848 11.1059 3.7334 10.2017C3.75904 10.5742 3.99676 10.9336 4.93283 11.3531C5.8689 11.7725 6.29723 11.868 7.35886 12.1621Z" fill="#BC6515" stroke="black" stroke-width="0.1"/>
<defs>
<filter id="filter0_d_219_240" x="0.324219" y="2.47388" width="8.64062" height="8.49023" filterUnits="userSpaceOnUse" color-interpolation-filters="sRGB">
<feFlood flood-opacity="0" result="BackgroundImageFix"/>
<feColorMatrix in="SourceAlpha" type="matrix" values="0 0 0 0 0 0 0 0 0 0 0 0 0 0 0 0 0 0 127 0" result="hardAlpha"/>
<feOffset dy="4"/>
<feGaussianBlur stdDeviation="2"/>
<feComposite in2="hardAlpha" operator="out"/>
<feColorMatrix type="matrix" values="0 0 0 0 0 0 0 0 0 0 0 0 0 0 0 0 0 0 0.25 0"/>
<feBlend mode="normal" in2="BackgroundImageFix" result="effect1_dropShadow_219_240"/>
<feBlend mode="normal" in="SourceGraphic" in2="effect1_dropShadow_219_240" result="shape"/>
</filter>
<filter id="filter1_d_219_240" x="0.0917969" y="3.87256" width="8.90723" height="8.68701" filterUnits="userSpaceOnUse" color-interpolation-filters="sRGB">
<feFlood flood-opacity="0" result="BackgroundImageFix"/>
<feColorMatrix in="SourceAlpha" type="matrix" values="0 0 0 0 0 0 0 0 0 0 0 0 0 0 0 0 0 0 127 0" result="hardAlpha"/>
<feOffset dy="4"/>
<feGaussianBlur stdDeviation="2"/>
<feComposite in2="hardAlpha" operator="out"/>
<feColorMatrix type="matrix" values="0 0 0 0 0 0 0 0 0 0 0 0 0 0 0 0 0 0 0.25 0"/>
<feBlend mode="normal" in2="BackgroundImageFix" result="effect1_dropShadow_219_240"/>
<feBlend mode="normal" in="SourceGraphic" in2="effect1_dropShadow_219_240" result="shape"/>
</filter>
<filter id="filter2_d_219_240" x="16.667" y="3.86548" width="8.90723" height="8.68701" filterUnits="userSpaceOnUse" color-interpolation-filters="sRGB">
<feFlood flood-opacity="0" result="BackgroundImageFix"/>
<feColorMatrix in="SourceAlpha" type="matrix" values="0 0 0 0 0 0 0 0 0 0 0 0 0 0 0 0 0 0 127 0" result="hardAlpha"/>
<feOffset dy="4"/>
<feGaussianBlur stdDeviation="2"/>
<feComposite in2="hardAlpha" operator="out"/>
<feColorMatrix type="matrix" values="0 0 0 0 0 0 0 0 0 0 0 0 0 0 0 0 0 0 0.25 0"/>
<feBlend mode="normal" in2="BackgroundImageFix" result="effect1_dropShadow_219_240"/>
<feBlend mode="normal" in="SourceGraphic" in2="effect1_dropShadow_219_240" result="shape"/>
</filter>
</defs>
</svg>
