<svg width="679" height="625" viewBox="0 0 679 625" fill="none" xmlns="http://www.w3.org/2000/svg">
<path d="M43.5532 555.376C43.5532 555.376 -52.8683 320.174 43.5532 141.244C139.975 -37.6852 520.537 -52.9077 629.677 141.244C738.817 335.396 629.677 555.376 629.677 555.376C358.505 644.785 314.726 648.82 43.5532 555.376Z" fill="white" stroke="black"/>
<path d="M323.355 622.59C261.792 622.141 206.57 608.221 89.7144 570.503C277.711 524.88 385.719 528.229 580.652 571.033C475.939 601.817 415.357 624.314 323.355 622.59Z" fill="#D9D9D9" stroke="black"/>
<path d="M122.751 508.884C22.7117 595.827 58.5651 263.95 122.751 169.171C217.53 29.2202 460.788 29.2202 555.566 169.171C619.752 263.95 656.982 570.456 555.566 508.884C454.15 447.313 222.791 421.942 122.751 508.884Z" fill="#3C50FF"/>
<path d="M250.085 213.974C250.085 232.224 247.196 248.723 242.541 260.641C240.213 266.602 237.453 271.392 234.414 274.683C231.376 277.973 228.096 279.729 224.709 279.729C221.323 279.729 218.043 277.973 215.004 274.683C211.965 271.392 209.206 266.602 206.878 260.641C202.223 248.723 199.333 232.224 199.333 213.974C199.333 195.725 202.223 179.225 206.878 167.307C209.206 161.346 211.965 156.557 215.004 153.266C218.043 149.975 221.323 148.22 224.709 148.22C228.096 148.22 231.376 149.975 234.414 153.266C237.453 156.557 240.213 161.346 242.541 167.307C247.196 179.225 250.085 195.725 250.085 213.974Z" fill="#6DE1F3" stroke="black"/>
<path d="M469.442 213.974C469.442 232.224 466.552 248.723 461.897 260.641C459.569 266.602 456.809 271.392 453.771 274.683C450.732 277.973 447.452 279.729 444.066 279.729C440.679 279.729 437.399 277.973 434.361 274.683C431.322 271.392 428.562 266.602 426.234 260.641C421.579 248.723 418.689 232.224 418.689 213.974C418.689 195.725 421.579 179.225 426.234 167.307C428.562 161.346 431.322 156.557 434.361 153.266C437.399 149.975 440.679 148.22 444.066 148.22C447.452 148.22 450.732 149.975 453.771 153.266C456.809 156.557 459.569 161.346 461.897 167.307C466.552 179.225 469.442 195.725 469.442 213.974Z" fill="#6DE1F3" stroke="black"/>
<ellipse cx="334.078" cy="369.85" rx="43.6826" ry="63.0799" fill="#6DE1F3"/>
</svg>
