<svg width="101" height="128" viewBox="0 0 101 128" fill="none" xmlns="http://www.w3.org/2000/svg">
<path d="M47.8192 35.3112C47.8192 35.3112 41.8298 20.701 47.8192 9.58647C53.8086 -1.5281 77.448 -2.47368 84.2275 9.58647C91.0069 21.6466 84.2275 35.3112 84.2275 35.3112C67.3831 40.865 64.6637 41.1156 47.8192 35.3112Z" fill="white" stroke="black"/>
<path d="M65.1996 39.4864C61.3755 39.4585 57.9452 38.5938 50.6865 36.2509C62.3643 33.4169 69.0734 33.6249 81.1821 36.2838C74.6777 38.196 70.9145 39.5935 65.1996 39.4864Z" fill="#D9D9D9" stroke="black"/>
<path d="M52.7387 32.4233C46.5245 37.8239 48.7516 17.2087 52.7387 11.3213C58.626 2.62793 73.7365 2.62793 79.6239 11.3213C83.6109 17.2087 85.9235 36.2479 79.6239 32.4233C73.3242 28.5986 58.9528 27.0227 52.7387 32.4233Z" fill="#3C50FF"/>
<path d="M72.3441 21.0647C71.2749 20.641 60.5546 20.6239 59.4388 21.0647C58.3229 21.5055 59.5561 26.6108 65.9168 26.6108C72.2776 26.6108 73.4134 21.4884 72.3441 21.0647Z" fill="#6DE1F3"/>
<path d="M61.7171 13.592C59.8217 12.3906 56.5975 15.315 55.5116 16.5048C54.4258 17.6945 53.5993 17.576 55.5116 15.584C57.424 13.592 59.4416 11.2955 61.7171 12.7067C63.9927 14.1178 63.6126 14.7934 61.7171 13.592Z" fill="#6DE1F3"/>
<path d="M71.1242 13.592C73.0196 12.3906 76.2438 15.315 77.3297 16.5048C78.4155 17.6945 79.242 17.576 77.3297 15.584C75.4173 13.592 73.3997 11.2955 71.1242 12.7067C68.8486 14.1178 69.2288 14.7934 71.1242 13.592Z" fill="#6DE1F3"/>
<path d="M91.9132 54.5332C93.7951 48.8056 96.7458 43.0458 98.6065 44.8275C100.467 46.6092 101.337 107.233 98.6065 106.528C95.8761 105.822 90.0314 60.2607 91.9132 54.5332Z" fill="white" stroke="black"/>
<path d="M47.1361 46.4523C49.3368 55.4435 46.8997 60.2218 37.7243 54.9952C28.549 49.7686 2.27413 10.194 6.03967 9.27523C11.9431 7.83481 44.9354 37.4611 47.1361 46.4523Z" fill="white" stroke="black"/>
<path d="M77.9626 115.468C77.9626 122.107 72.503 127.5 65.7533 127.5C59.0036 127.5 53.5439 122.107 53.5439 115.468C53.5439 108.83 59.0036 103.437 65.7533 103.437C72.503 103.437 77.9626 108.83 77.9626 115.468Z" fill="#6DE1F3" stroke="black"/>
<path d="M48.8416 113.676C46.7129 102.158 30.5618 57.9826 48.8416 43.5558C60.172 34.6136 71.6459 34.6136 82.9764 43.5558C101.256 57.9826 84.9091 102.755 82.9764 113.676C81.0437 124.597 50.9702 125.194 48.8416 113.676Z" fill="white" stroke="black"/>
<path d="M59.3725 121.471C53.1544 119.725 49.8031 118.486 48.5708 112.386C45.6722 101.134 44.1982 95.1252 42.1567 85.5757C48.2241 104.528 51.6362 115.076 59.3725 121.471Z" fill="#BDBDBD" stroke="black"/>
<path d="M87.0235 51.1425C84.5008 46.579 76.856 41.8262 76.856 41.8262C85.2335 49.391 88.4368 55.4401 89.5409 69.3935C89.5409 69.3935 90.5045 57.4393 87.0235 51.1425Z" fill="#D9D9D9" stroke="black"/>
</svg>
